<svg id="svg" version="1.1" width="400" height="120" xmlns="http://www.w3.org/2000/svg" xmlns:xlink="http://www.w3.org/1999/xlink" style="display: block;"><g id="svgg"><path id="path0" d="M55.285 26.279 C 55.243 26.786,55.365 27.200,55.556 27.200 C 56.025 27.200,56.990 26.007,56.549 25.972 C 56.357 25.956,56.560 25.786,57.000 25.593 C 57.668 25.299,57.599 25.251,56.581 25.300 C 55.616 25.346,55.345 25.550,55.285 26.279 M105.467 25.467 C 104.715 26.218,105.241 27.200,106.396 27.200 C 107.426 27.200,107.580 27.062,107.508 26.200 C 107.428 25.228,106.161 24.773,105.467 25.467 M112.400 26.200 C 112.400 27.076,112.573 27.200,113.800 27.200 C 115.027 27.200,115.200 27.076,115.200 26.200 C 115.200 25.324,115.027 25.200,113.800 25.200 C 112.573 25.200,112.400 25.324,112.400 26.200 M165.359 26.177 C 165.406 27.106,166.744 27.537,167.215 26.776 C 167.711 25.973,167.199 25.209,166.219 25.290 C 165.588 25.342,165.330 25.609,165.359 26.177 M186.892 26.200 C 186.820 27.062,186.974 27.200,188.004 27.200 C 189.013 27.200,189.200 27.044,189.200 26.200 C 189.200 25.373,189.008 25.200,188.087 25.200 C 187.189 25.200,186.959 25.393,186.892 26.200 M223.200 26.173 C 223.200 27.053,223.376 27.200,224.428 27.200 C 225.472 27.200,225.637 27.066,225.528 26.300 C 225.327 24.885,223.200 24.770,223.200 26.173 M246.493 26.182 C 246.418 27.093,246.555 27.200,247.792 27.200 C 249.057 27.200,249.146 27.123,248.844 26.300 C 248.346 24.943,246.603 24.855,246.493 26.182 M335.285 26.281 C 335.224 27.013,335.411 27.200,336.200 27.200 C 337.009 27.200,337.176 27.019,337.109 26.212 C 336.998 24.873,335.397 24.933,335.285 26.281 M371.200 25.429 C 371.200 25.796,372.399 26.890,372.406 26.529 C 372.409 26.348,372.587 26.470,372.800 26.800 C 373.102 27.268,373.189 27.157,373.194 26.300 C 373.199 25.392,373.026 25.200,372.200 25.200 C 371.650 25.200,371.200 25.303,371.200 25.429 M83.120 28.293 C 83.249 28.967,83.564 29.197,84.347 29.187 C 85.379 29.175,85.384 29.162,84.600 28.533 C 83.950 28.013,83.931 27.938,84.500 28.134 C 84.940 28.285,85.200 28.174,85.200 27.834 C 85.200 27.497,84.776 27.311,84.073 27.339 C 83.127 27.378,82.974 27.531,83.120 28.293 M101.467 27.467 C 101.320 27.613,101.200 42.373,101.200 60.267 L 101.200 92.800 102.200 92.800 L 103.200 92.800 103.200 60.000 C 103.200 25.021,103.236 25.697,101.467 27.467 M193.292 28.200 C 193.357 28.983,193.594 29.199,194.387 29.194 C 195.095 29.190,195.239 29.086,194.866 28.849 C 194.572 28.663,194.347 28.396,194.366 28.255 C 194.473 27.454,194.338 27.200,193.804 27.200 C 193.414 27.200,193.237 27.544,193.292 28.200 M88.800 34.133 C 88.800 35.348,89.014 35.525,90.209 35.296 C 91.786 34.995,91.607 33.200,90.000 33.200 C 89.010 33.200,88.800 33.363,88.800 34.133 M243.200 35.740 C 243.200 36.488,243.405 36.672,244.202 36.640 C 244.753 36.618,245.203 36.465,245.202 36.300 C 245.201 36.135,245.200 35.730,245.200 35.400 C 245.200 35.027,244.822 34.800,244.200 34.800 C 243.417 34.800,243.200 35.004,243.200 35.740 M291.342 35.722 C 291.377 36.289,291.669 36.665,292.100 36.698 C 292.954 36.762,293.030 36.063,292.202 35.746 C 291.874 35.619,291.704 35.355,291.826 35.158 C 291.948 34.961,291.876 34.800,291.666 34.800 C 291.456 34.800,291.310 35.215,291.342 35.722 M37.200 36.200 C 37.200 36.970,37.407 37.200,38.100 37.200 C 38.793 37.200,39.000 36.970,39.000 36.200 C 39.000 35.430,38.793 35.200,38.100 35.200 C 37.407 35.200,37.200 35.430,37.200 36.200 M149.285 36.381 C 149.225 37.173,149.295 37.266,149.598 36.800 C 149.874 36.375,149.990 36.351,149.994 36.716 C 149.999 37.137,150.102 37.137,150.556 36.716 C 150.902 36.394,150.961 36.105,150.710 35.948 C 150.468 35.796,150.525 35.610,150.855 35.478 C 151.155 35.358,150.941 35.282,150.381 35.310 C 149.590 35.350,149.344 35.590,149.285 36.381 M79.355 41.667 C 79.386 42.264,79.680 42.555,80.300 42.600 C 81.401 42.681,81.408 42.608,80.400 41.600 C 79.394 40.594,79.299 40.600,79.355 41.667 M89.200 41.804 C 89.200 43.132,90.631 43.197,90.882 41.881 C 91.022 41.151,90.868 40.947,90.129 40.886 C 89.385 40.824,89.200 41.007,89.200 41.804 M185.200 41.095 C 185.200 42.037,186.380 43.008,186.786 42.400 C 187.282 41.657,187.130 41.099,186.375 40.895 C 185.893 40.764,185.895 40.805,186.388 41.148 C 186.712 41.373,186.868 41.665,186.736 41.797 C 186.604 41.930,186.204 41.747,185.848 41.390 C 185.491 41.034,185.200 40.901,185.200 41.095 M249.439 51.538 C 249.300 51.761,249.382 52.065,249.620 52.212 C 250.235 52.593,250.632 52.072,250.118 51.558 C 249.831 51.271,249.607 51.264,249.439 51.538 M29.285 54.281 C 29.224 55.014,29.410 55.200,30.204 55.200 C 30.999 55.200,31.200 54.999,31.200 54.204 C 31.200 52.829,29.399 52.900,29.285 54.281 M159.084 54.650 C 158.244 55.489,158.819 56.800,160.027 56.800 C 161.129 56.800,161.240 56.688,161.127 55.700 C 161.002 54.622,159.754 53.980,159.084 54.650 M59.200 55.800 C 59.200 56.130,59.425 56.403,59.700 56.406 C 60.033 56.410,60.000 56.542,59.600 56.800 C 59.270 57.013,59.189 57.191,59.420 57.194 C 59.651 57.197,60.082 56.975,60.379 56.700 C 60.810 56.300,60.861 56.300,60.635 56.700 C 60.480 56.975,60.543 57.200,60.776 57.200 C 61.009 57.200,61.200 56.829,61.200 56.376 C 61.200 55.923,61.020 55.664,60.800 55.800 C 60.580 55.936,60.400 55.857,60.400 55.624 C 60.400 55.391,60.130 55.200,59.800 55.200 C 59.470 55.200,59.200 55.470,59.200 55.800 M44.946 58.717 C 44.120 59.242,45.068 60.800,46.214 60.800 C 47.104 60.800,47.235 60.647,47.127 59.738 C 46.998 58.658,45.871 58.130,44.946 58.717 M88.659 61.638 C 88.327 64.813,88.320 85.899,88.650 87.550 C 88.861 88.606,89.080 88.800,90.063 88.800 L 91.226 88.800 91.113 74.100 L 91.000 59.400 89.959 59.279 C 88.960 59.163,88.908 59.258,88.659 61.638 M44.944 61.801 C 44.556 62.813,45.126 63.666,46.098 63.528 C 47.379 63.346,47.370 61.536,46.087 61.340 C 45.544 61.257,45.081 61.444,44.944 61.801 M249.467 65.067 C 248.769 65.764,249.227 66.789,250.200 66.708 C 251.325 66.615,251.423 66.401,250.700 65.621 C 250.300 65.190,250.300 65.139,250.700 65.365 C 250.975 65.520,251.200 65.457,251.200 65.224 C 251.200 64.759,249.893 64.640,249.467 65.067 M29.200 69.600 C 29.200 71.115,30.953 71.387,31.334 69.931 C 31.636 68.775,31.352 68.400,30.176 68.400 C 29.358 68.400,29.200 68.594,29.200 69.600 M74.100 68.707 C 73.210 68.854,73.200 68.929,73.200 75.254 L 73.200 81.653 74.300 81.527 L 75.400 81.400 75.511 75.231 C 75.627 68.777,75.560 68.467,74.100 68.707 M51.528 77.651 C 51.251 78.331,51.848 79.200,52.593 79.200 C 52.831 79.200,53.059 78.705,53.101 78.100 L 53.176 77.000 52.627 77.987 L 52.078 78.974 51.936 77.987 C 51.825 77.223,51.733 77.147,51.528 77.651 M256.114 80.242 L 255.229 81.200 256.214 81.200 C 256.999 81.200,257.200 80.996,257.200 80.200 C 257.200 79.024,257.243 79.022,256.114 80.242 M57.430 81.949 C 57.854 82.361,58.320 82.630,58.466 82.546 C 58.612 82.463,58.823 82.621,58.934 82.898 C 59.046 83.174,59.151 82.905,59.168 82.300 C 59.196 81.324,59.056 81.200,57.930 81.200 C 56.681 81.200,56.673 81.213,57.430 81.949 M174.400 84.192 C 174.400 85.243,175.791 85.919,176.999 85.456 C 178.447 84.900,177.694 83.200,176.000 83.200 C 174.563 83.200,174.400 83.301,174.400 84.192 M148.000 85.400 C 148.000 85.730,147.809 86.000,147.576 86.000 C 147.343 86.000,147.279 86.204,147.433 86.454 C 147.617 86.751,147.875 86.608,148.178 86.041 C 148.433 85.565,148.796 85.316,148.985 85.487 C 149.174 85.659,149.199 85.575,149.041 85.300 C 148.643 84.610,148.000 84.672,148.000 85.400 M245.829 85.829 C 244.886 86.771,245.065 87.200,246.400 87.200 C 247.621 87.200,247.790 86.959,247.357 85.833 C 247.050 85.033,246.625 85.032,245.829 85.829 M103.340 95.565 C 103.430 96.237,103.763 96.570,104.435 96.660 C 105.252 96.770,105.294 96.727,104.713 96.382 C 104.335 96.158,103.842 95.665,103.618 95.287 C 103.273 94.706,103.230 94.748,103.340 95.565 M223.200 95.827 C 223.200 97.230,225.327 97.115,225.528 95.700 C 225.637 94.934,225.472 94.800,224.428 94.800 C 223.376 94.800,223.200 94.947,223.200 95.827 M246.770 94.900 C 246.277 96.561,246.423 96.848,247.699 96.725 C 249.574 96.545,249.872 94.800,248.028 94.800 C 247.353 94.800,246.787 94.845,246.770 94.900 M335.600 96.200 C 335.299 96.562,335.267 96.800,335.518 96.800 C 335.746 96.800,336.024 96.575,336.135 96.300 C 336.296 95.900,336.343 95.900,336.368 96.300 C 336.414 97.015,337.067 96.921,337.067 96.200 C 337.067 95.870,336.849 95.600,336.582 95.600 C 336.316 95.600,335.874 95.870,335.600 96.200 " stroke="none" fill="#c6c6c6" fill-rule="evenodd"></path><path id="path1" d="M57.070 25.544 C 56.669 25.702,56.336 26.004,56.330 26.216 C 56.325 26.427,56.188 26.565,56.027 26.522 C 55.865 26.479,55.733 26.706,55.733 27.025 C 55.733 27.783,58.753 28.624,59.592 28.100 C 61.891 26.662,59.748 24.489,57.070 25.544 M74.708 26.228 C 74.971 27.609,76.827 27.637,76.713 26.259 C 76.653 25.536,76.389 25.310,75.579 25.287 C 74.670 25.261,74.548 25.393,74.708 26.228 M107.554 25.500 C 107.529 25.665,107.540 26.115,107.579 26.500 C 107.634 27.036,107.339 27.206,106.325 27.227 C 105.078 27.253,105.053 27.280,105.903 27.690 C 107.311 28.369,108.757 27.558,108.504 26.231 C 108.324 25.290,107.664 24.782,107.554 25.500 M111.444 26.300 C 111.677 27.644,112.570 28.385,113.625 28.109 C 114.931 27.768,114.930 27.200,113.624 27.200 C 112.585 27.200,112.400 27.049,112.400 26.200 C 112.400 25.598,112.172 25.200,111.826 25.200 C 111.421 25.200,111.309 25.523,111.444 26.300 M167.224 25.674 C 167.400 26.979,167.180 27.289,166.212 27.104 C 165.669 27.001,165.313 27.059,165.421 27.235 C 165.768 27.796,169.168 28.125,169.737 27.652 C 170.856 26.723,170.253 25.410,168.646 25.274 C 167.591 25.186,167.174 25.303,167.224 25.674 M184.000 25.943 C 184.000 27.604,184.427 28.000,186.219 28.000 C 187.173 28.000,188.064 27.820,188.200 27.600 C 188.336 27.380,188.065 27.200,187.598 27.200 C 186.948 27.200,186.779 26.990,186.875 26.300 C 186.983 25.522,186.797 25.383,185.500 25.276 C 184.230 25.171,184.000 25.273,184.000 25.943 M225.493 26.152 C 225.660 27.028,225.526 27.160,224.341 27.290 L 223.000 27.436 224.134 27.770 C 224.936 28.006,225.424 27.942,225.802 27.552 C 226.616 26.712,226.699 25.450,225.952 25.295 C 225.456 25.193,225.348 25.395,225.493 26.152 M244.196 25.978 C 244.283 26.432,244.461 26.975,244.591 27.186 C 244.971 27.800,247.467 28.116,248.267 27.650 C 248.893 27.286,248.807 27.223,247.675 27.212 C 246.533 27.202,246.367 27.075,246.475 26.300 C 246.579 25.548,246.390 25.380,245.318 25.276 C 244.210 25.169,244.058 25.264,244.196 25.978 M337.154 25.500 C 337.129 25.665,337.140 26.115,337.179 26.500 C 337.231 27.015,336.953 27.203,336.125 27.212 C 335.139 27.223,335.090 27.277,335.729 27.648 C 336.957 28.362,338.285 27.762,338.485 26.404 C 338.626 25.440,338.516 25.200,337.931 25.200 C 337.529 25.200,337.179 25.335,337.154 25.500 M369.600 26.120 C 369.600 27.343,370.318 28.000,371.656 28.000 C 372.930 28.000,373.298 27.600,372.780 26.781 C 372.578 26.461,372.409 26.363,372.406 26.561 C 372.403 26.760,372.064 26.535,371.653 26.061 C 370.653 24.909,369.600 24.939,369.600 26.120 M81.600 28.142 C 81.600 29.847,83.451 30.943,84.400 29.800 C 84.817 29.297,84.753 29.200,84.002 29.200 C 83.284 29.200,83.141 29.018,83.282 28.281 C 83.422 27.551,83.268 27.347,82.529 27.286 C 81.800 27.226,81.600 27.410,81.600 28.142 M103.206 59.524 C 103.202 81.106,103.335 91.964,103.600 91.800 C 104.139 91.467,104.139 28.434,103.600 27.600 C 103.348 27.210,103.210 38.378,103.206 59.524 M116.257 29.659 C 116.116 31.011,116.000 43.707,116.000 57.871 C 116.000 86.002,115.890 84.725,118.226 83.661 L 119.200 83.217 119.195 56.109 C 119.189 26.560,119.224 27.200,117.610 27.200 C 116.562 27.200,116.503 27.308,116.257 29.659 M192.267 27.467 C 191.338 28.396,192.667 30.303,193.895 29.802 C 194.562 29.530,194.560 29.499,193.870 29.241 C 193.469 29.091,193.154 28.841,193.170 28.684 C 193.314 27.303,192.937 26.796,192.267 27.467 M318.554 27.777 C 318.077 29.018,318.579 29.780,319.910 29.834 C 321.018 29.878,321.195 29.760,321.096 29.043 C 320.854 27.287,319.080 26.404,318.554 27.777 M45.200 30.392 C 45.200 31.612,46.575 32.434,47.577 31.814 C 48.742 31.094,48.034 29.200,46.600 29.200 C 45.313 29.200,45.200 29.296,45.200 30.392 M86.800 30.400 C 86.800 30.978,87.067 31.200,87.763 31.200 C 88.528 31.200,88.682 31.036,88.516 30.400 C 88.400 29.957,87.970 29.600,87.553 29.600 C 87.067 29.600,86.800 29.883,86.800 30.400 M198.169 32.300 C 198.385 34.945,203.142 38.004,203.042 35.434 C 202.986 33.977,202.502 33.089,201.951 33.430 C 201.735 33.564,201.348 33.117,201.091 32.437 C 200.428 30.678,198.028 30.566,198.169 32.300 M320.800 31.600 C 320.800 31.820,320.386 32.000,319.880 32.000 C 318.708 32.000,318.000 32.708,318.000 33.880 C 318.000 34.883,320.069 35.260,320.626 34.358 C 320.995 33.761,321.325 31.200,321.033 31.200 C 320.905 31.200,320.800 31.380,320.800 31.600 M40.079 33.551 C 39.476 33.924,38.727 36.032,38.971 36.669 C 39.107 37.024,38.814 37.218,38.087 37.254 C 37.108 37.304,37.092 37.326,37.925 37.486 C 38.548 37.605,39.145 37.344,39.753 36.689 C 40.249 36.153,40.851 35.644,41.090 35.557 C 41.328 35.471,41.586 34.969,41.662 34.442 C 41.803 33.464,40.974 32.998,40.079 33.551 M88.010 34.088 C 87.330 35.490,87.907 36.255,89.814 36.478 C 90.959 36.611,91.200 36.509,91.200 35.891 C 91.200 35.311,90.954 35.172,90.106 35.271 C 89.169 35.382,88.978 35.228,88.775 34.200 L 88.538 33.000 88.010 34.088 M151.486 33.448 C 151.329 33.605,151.200 34.153,151.200 34.667 C 151.200 35.180,150.975 35.603,150.700 35.606 C 150.340 35.611,150.328 35.694,150.656 35.906 C 150.986 36.119,150.958 36.342,150.556 36.716 C 150.102 37.137,149.999 37.137,149.994 36.716 C 149.988 36.198,149.220 37.103,149.206 37.645 C 149.195 38.084,151.164 37.526,151.637 36.956 C 151.890 36.650,152.414 36.400,152.800 36.400 C 154.781 36.400,154.955 33.474,152.986 33.281 C 152.318 33.216,151.643 33.291,151.486 33.448 M260.908 34.127 C 260.974 35.198,261.451 35.564,262.444 35.304 C 263.781 34.955,263.222 33.400,261.727 33.308 C 261.065 33.267,260.867 33.465,260.908 34.127 M244.500 34.676 C 245.113 34.836,245.400 35.535,245.247 36.500 C 245.221 36.665,245.650 36.800,246.200 36.800 C 246.988 36.800,247.200 36.597,247.200 35.843 C 247.200 34.792,246.503 34.375,244.867 34.446 C 244.190 34.476,244.056 34.560,244.500 34.676 M290.736 34.620 C 290.415 35.200,290.934 36.587,291.517 36.706 C 291.888 36.782,291.932 36.612,291.671 36.106 C 291.471 35.718,291.227 35.139,291.127 34.820 C 291.028 34.501,290.852 34.411,290.736 34.620 M75.680 38.480 C 74.535 39.625,75.103 40.800,76.800 40.800 C 78.203 40.800,78.400 40.687,78.400 39.880 C 78.400 38.809,77.712 38.000,76.800 38.000 C 76.448 38.000,75.944 38.216,75.680 38.480 M58.356 38.600 C 58.022 40.100,58.285 40.600,59.406 40.600 C 60.703 40.600,61.322 39.377,60.339 38.754 C 59.752 38.382,58.427 38.279,58.356 38.600 M88.993 40.264 C 88.328 40.929,88.314 41.069,88.800 42.200 C 89.100 42.899,89.147 42.855,89.172 41.853 C 89.195 40.922,89.346 40.745,89.974 40.909 C 90.403 41.021,90.837 40.881,90.946 40.595 C 91.238 39.836,89.684 39.573,88.993 40.264 M54.800 41.763 C 54.800 42.528,54.964 42.682,55.600 42.516 C 56.043 42.400,56.400 41.970,56.400 41.553 C 56.400 41.067,56.117 40.800,55.600 40.800 C 55.022 40.800,54.800 41.067,54.800 41.763 M80.092 41.275 C 80.339 42.017,81.200 42.140,81.200 41.433 C 81.200 41.085,80.915 40.800,80.567 40.800 C 80.218 40.800,80.005 41.014,80.092 41.275 M185.613 41.186 C 185.619 41.304,186.114 41.752,186.713 42.181 C 187.524 42.764,187.664 42.794,187.266 42.299 C 186.972 41.934,186.823 41.486,186.936 41.303 C 187.049 41.121,186.794 40.971,186.371 40.971 C 185.947 40.971,185.606 41.068,185.613 41.186 M33.570 41.385 C 32.892 41.724,33.406 43.200,34.203 43.200 C 34.993 43.200,35.200 42.998,35.200 42.225 C 35.200 41.413,34.370 40.985,33.570 41.385 M189.200 45.600 C 189.200 47.143,191.009 47.372,191.566 45.900 C 192.019 44.701,191.780 44.400,190.376 44.400 C 189.336 44.400,189.200 44.539,189.200 45.600 M206.099 46.143 C 205.535 47.381,206.532 48.446,208.133 48.314 C 210.021 48.158,209.532 45.504,207.573 45.279 C 206.807 45.192,206.432 45.412,206.099 46.143 M143.200 50.200 C 143.200 51.330,144.171 51.574,144.566 50.543 C 144.777 49.994,144.718 49.970,144.209 50.392 C 143.823 50.713,143.600 50.741,143.600 50.469 C 143.600 50.233,143.915 49.856,144.300 49.632 C 144.925 49.268,144.904 49.223,144.100 49.212 C 143.403 49.203,143.200 49.426,143.200 50.200 M191.567 50.900 C 191.197 52.009,191.453 52.640,192.273 52.640 C 192.974 52.640,193.200 52.415,193.200 51.720 C 193.200 50.978,191.779 50.264,191.567 50.900 M260.598 52.804 C 260.114 53.586,260.833 54.800,261.780 54.800 C 262.611 54.800,263.171 53.967,263.195 52.700 C 263.203 52.247,260.884 52.340,260.598 52.804 M159.329 53.481 C 158.083 53.720,157.470 54.626,157.763 55.795 C 158.098 57.128,158.715 57.075,158.873 55.700 C 158.978 54.789,159.191 54.603,160.113 54.617 C 160.880 54.628,161.191 54.452,161.113 54.050 C 160.983 53.380,160.561 53.246,159.329 53.481 M31.212 54.300 C 31.203 54.990,30.967 55.200,30.200 55.200 C 29.162 55.200,28.825 55.807,29.700 56.102 C 31.130 56.583,32.334 55.301,31.613 54.066 C 31.279 53.493,31.223 53.526,31.212 54.300 M60.400 55.624 C 60.400 55.857,60.580 55.936,60.800 55.800 C 61.020 55.664,61.200 55.923,61.200 56.376 C 61.200 56.829,61.009 57.200,60.776 57.200 C 60.543 57.200,60.441 57.057,60.549 56.883 C 60.656 56.709,60.354 56.537,59.877 56.501 C 59.190 56.449,59.134 56.514,59.605 56.812 C 60.003 57.063,60.035 57.190,59.700 57.194 C 59.425 57.197,59.200 57.335,59.200 57.500 C 59.200 57.823,82.977 57.717,85.043 57.385 C 86.115 57.213,86.260 57.049,86.096 56.193 L 85.907 55.200 73.153 55.200 C 64.444 55.200,60.400 55.334,60.400 55.624 M256.769 57.300 C 256.753 57.575,256.679 58.114,256.605 58.498 C 256.531 58.883,256.635 59.298,256.836 59.422 C 257.036 59.546,257.200 59.457,257.200 59.224 C 257.200 58.991,257.541 58.800,257.957 58.800 C 258.744 58.800,259.369 57.798,258.978 57.164 C 258.638 56.614,256.804 56.728,256.769 57.300 M43.744 58.201 C 43.392 59.120,43.943 60.800,44.598 60.800 C 45.048 60.800,45.097 60.581,44.813 59.834 C 44.402 58.754,44.951 58.321,46.382 58.597 C 46.901 58.696,47.200 58.543,47.200 58.177 C 47.200 57.357,44.060 57.379,43.744 58.201 M29.200 62.200 C 29.200 66.124,29.500 66.688,31.062 65.694 C 31.716 65.278,31.745 59.139,31.094 58.726 C 29.497 57.712,29.200 58.256,29.200 62.200 M88.080 59.680 C 87.572 60.188,87.350 86.882,87.843 88.167 C 88.487 89.846,88.600 87.729,88.600 74.000 C 88.600 65.860,88.591 59.200,88.580 59.200 C 88.569 59.200,88.344 59.416,88.080 59.680 M44.080 61.680 C 42.781 62.979,44.138 65.008,46.117 64.725 C 47.473 64.531,47.470 63.363,46.113 63.383 C 45.158 63.398,45.002 63.244,45.016 62.300 C 45.033 61.095,44.811 60.949,44.080 61.680 M366.262 62.331 C 364.993 63.734,365.394 64.800,367.192 64.800 C 368.557 64.800,368.821 64.657,369.036 63.801 C 369.561 61.707,367.713 60.728,366.262 62.331 M249.645 64.545 C 249.279 64.986,249.384 65.054,250.197 64.899 C 250.808 64.782,251.200 64.891,251.200 65.177 C 251.200 65.436,251.007 65.528,250.770 65.382 C 250.534 65.236,250.578 65.495,250.867 65.958 C 251.563 67.073,252.400 67.030,252.400 65.880 C 252.400 64.210,250.634 63.354,249.645 64.545 M61.301 66.158 C 59.482 66.546,59.295 66.670,59.901 67.091 C 60.561 67.550,60.560 67.564,59.884 67.340 C 59.405 67.181,59.206 67.284,59.284 67.651 C 59.459 68.477,60.134 68.820,60.520 68.279 C 60.781 67.912,60.910 67.921,61.069 68.316 C 61.229 68.713,62.909 68.820,68.339 68.781 L 75.400 68.729 75.400 75.065 L 75.400 81.400 74.300 81.527 C 72.657 81.716,72.876 82.800,74.557 82.800 C 76.364 82.800,76.401 82.645,76.394 75.067 C 76.387 68.096,76.436 68.310,74.469 66.694 C 72.976 65.466,65.897 65.178,61.301 66.158 M158.425 68.100 C 157.967 69.282,158.735 70.483,160.038 70.622 C 160.806 70.703,161.054 70.529,161.118 69.864 C 161.285 68.105,160.831 67.200,159.779 67.200 C 159.107 67.200,158.659 67.498,158.425 68.100 M254.036 67.933 C 253.742 68.482,253.784 68.667,254.204 68.667 C 254.512 68.667,254.660 68.497,254.531 68.289 C 254.403 68.081,254.546 67.753,254.849 67.561 C 255.226 67.322,255.247 67.210,254.914 67.206 C 254.647 67.203,254.252 67.530,254.036 67.933 M29.200 67.973 C 29.200 68.179,29.695 68.404,30.300 68.473 C 31.256 68.583,31.383 68.754,31.274 69.771 C 31.164 70.793,31.227 70.876,31.774 70.422 C 32.520 69.803,32.586 68.746,31.920 68.080 C 31.355 67.515,29.200 67.431,29.200 67.973 M191.467 69.467 C 191.010 69.924,191.175 71.505,191.700 71.705 C 192.926 72.171,194.020 71.281,193.533 70.214 C 193.097 69.256,192.054 68.879,191.467 69.467 M206.806 75.300 C 206.820 76.460,207.455 76.888,208.142 76.201 C 209.074 75.269,208.959 74.800,207.800 74.800 C 207.250 74.800,206.803 75.025,206.806 75.300 M48.700 76.210 C 48.571 76.886,48.696 77.339,49.049 77.474 C 49.352 77.591,49.600 77.916,49.600 78.198 C 49.600 79.353,50.953 80.356,51.970 79.956 L 52.941 79.574 52.087 78.976 C 51.544 78.596,51.325 78.140,51.485 77.723 C 51.646 77.304,51.578 77.167,51.295 77.341 C 51.023 77.509,50.806 77.190,50.727 76.507 C 50.548 74.947,48.985 74.719,48.700 76.210 M160.800 76.255 C 160.800 76.828,161.036 77.200,161.400 77.200 C 161.730 77.200,162.131 77.214,162.290 77.230 C 162.450 77.247,162.653 77.041,162.742 76.774 C 162.848 76.455,162.715 76.403,162.352 76.621 C 161.884 76.903,161.883 76.851,162.349 76.277 C 162.958 75.527,162.965 75.536,161.700 75.404 C 160.994 75.330,160.800 75.513,160.800 76.255 M189.200 76.600 C 189.200 77.892,189.293 78.000,190.413 78.000 C 191.802 78.000,192.265 77.243,191.617 76.031 C 190.822 74.546,189.200 74.927,189.200 76.600 M52.006 78.100 C 52.011 78.828,52.086 78.885,52.400 78.400 C 52.901 77.624,52.901 77.200,52.400 77.200 C 52.180 77.200,52.003 77.605,52.006 78.100 M145.381 81.467 C 145.392 82.063,145.664 82.606,146.000 82.697 C 146.533 82.843,146.533 82.814,146.000 82.437 C 145.670 82.203,145.589 82.009,145.820 82.006 C 146.051 82.003,146.438 82.198,146.680 82.440 C 147.187 82.947,147.829 81.494,147.402 80.804 C 146.832 79.881,145.362 80.364,145.381 81.467 M56.006 81.900 C 56.014 82.837,56.651 83.794,57.285 83.825 C 57.952 83.856,58.800 83.218,58.800 82.684 C 58.800 82.455,58.691 82.376,58.557 82.509 C 58.424 82.643,57.940 82.403,57.482 81.976 C 56.450 81.014,55.998 80.991,56.006 81.900 M166.893 82.184 C 166.823 83.029,166.981 83.200,167.832 83.200 C 168.665 83.200,168.832 83.032,168.728 82.300 C 168.537 80.956,167.003 80.859,166.893 82.184 M183.485 81.448 C 182.890 82.043,183.237 83.088,184.170 83.513 C 185.294 84.026,186.161 83.339,185.930 82.119 C 185.791 81.389,184.028 80.905,183.485 81.448 M173.200 84.320 C 173.200 85.909,173.882 86.400,176.089 86.400 C 178.132 86.400,179.232 85.302,178.665 83.826 C 178.288 82.844,177.600 83.094,177.600 84.213 C 177.600 85.373,176.838 85.797,175.399 85.436 C 174.669 85.252,174.400 84.917,174.400 84.192 C 174.400 83.577,174.172 83.200,173.800 83.200 C 173.410 83.200,173.200 83.591,173.200 84.320 M148.581 85.260 C 148.303 86.131,148.262 86.144,148.011 85.429 C 147.785 84.786,147.700 84.762,147.502 85.279 C 147.347 85.683,147.588 86.048,148.192 86.324 C 148.991 86.687,149.152 86.625,149.347 85.880 C 149.663 84.673,148.950 84.096,148.581 85.260 M247.405 86.016 C 247.584 86.580,247.489 87.040,247.143 87.288 C 246.736 87.578,246.784 87.616,247.333 87.438 C 247.736 87.307,248.231 87.200,248.433 87.200 C 249.136 87.200,248.794 86.025,247.962 85.580 C 247.206 85.175,247.152 85.217,247.405 86.016 M151.272 89.700 C 151.354 90.278,151.722 90.646,152.300 90.728 C 152.951 90.820,153.200 91.124,153.200 91.828 C 153.200 92.669,153.385 92.800,154.575 92.800 C 155.748 92.800,155.944 92.668,155.904 91.900 C 155.843 90.702,155.269 90.000,154.351 90.000 C 153.938 90.000,153.600 89.730,153.600 89.400 C 153.600 88.997,153.197 88.800,152.372 88.800 C 151.328 88.800,151.163 88.934,151.272 89.700 M103.345 95.007 C 103.375 95.516,103.580 95.903,103.800 95.866 C 104.020 95.830,104.170 95.980,104.134 96.200 C 104.097 96.420,104.502 96.626,105.034 96.658 C 105.802 96.704,106.000 96.520,106.000 95.758 C 106.000 95.231,105.954 94.800,105.897 94.800 C 105.841 94.800,105.231 94.638,104.542 94.441 C 103.389 94.110,103.294 94.155,103.345 95.007 M223.400 94.400 C 223.255 94.635,223.678 94.800,224.423 94.800 C 225.562 94.800,225.674 94.903,225.502 95.800 C 225.374 96.471,225.490 96.800,225.855 96.800 C 226.529 96.800,226.575 95.135,225.920 94.480 C 225.338 93.898,223.742 93.847,223.400 94.400 M246.080 94.480 C 245.500 95.060,245.440 96.800,246.000 96.800 C 246.220 96.800,246.423 96.620,246.450 96.400 C 246.478 96.180,246.523 95.777,246.550 95.504 C 246.578 95.231,247.140 94.911,247.800 94.793 C 248.784 94.617,248.868 94.526,248.267 94.289 C 247.225 93.878,246.630 93.930,246.080 94.480 M336.000 94.328 C 335.670 94.478,335.339 95.050,335.265 95.600 C 335.157 96.409,335.229 96.504,335.645 96.100 C 336.299 95.465,337.232 95.450,337.100 96.076 C 337.045 96.338,337.315 96.621,337.700 96.706 C 338.213 96.818,338.400 96.605,338.400 95.909 C 338.400 94.348,337.404 93.692,336.000 94.328 M51.700 94.665 C 50.784 95.035,51.141 96.370,52.229 96.643 C 53.519 96.967,54.019 96.466,53.571 95.300 C 53.235 94.425,52.725 94.251,51.700 94.665 M161.700 94.665 C 160.593 95.112,161.128 96.800,162.376 96.800 C 163.780 96.800,164.019 96.499,163.566 95.300 C 163.235 94.425,162.725 94.251,161.700 94.665 M79.338 95.653 C 79.407 96.761,80.629 97.036,80.629 95.944 C 80.629 95.567,80.467 95.359,80.270 95.481 C 80.072 95.603,79.768 95.472,79.594 95.190 C 79.390 94.860,79.299 95.025,79.338 95.653 " stroke="none" fill="#e8e8e8" fill-rule="evenodd"></path><path id="path2" d="M60.326 26.451 C 60.140 28.328,59.324 28.639,56.726 27.822 C 54.182 27.022,49.433 27.072,49.350 27.900 C 49.323 28.175,49.278 28.580,49.250 28.800 C 49.223 29.020,48.941 29.200,48.625 29.200 C 48.269 29.200,48.003 29.695,47.925 30.500 C 47.790 31.902,47.481 31.981,44.500 31.374 C 43.297 31.129,43.200 31.188,43.200 32.155 C 43.200 32.891,42.989 33.200,42.487 33.200 C 41.998 33.200,41.746 33.545,41.684 34.300 C 41.634 34.905,41.382 35.471,41.124 35.557 C 40.866 35.644,40.262 36.139,39.782 36.657 C 39.301 37.176,38.524 37.600,38.054 37.600 C 37.467 37.600,37.200 37.850,37.200 38.400 C 37.200 38.987,36.933 39.200,36.200 39.200 C 35.267 39.200,35.200 39.333,35.200 41.200 C 35.200 43.067,35.133 43.200,34.200 43.200 C 33.408 43.200,33.200 43.402,33.200 44.172 C 33.200 44.876,32.951 45.180,32.300 45.272 C 31.370 45.404,30.888 52.730,31.700 54.400 C 32.131 55.287,31.436 56.100,30.245 56.100 C 28.600 56.100,28.728 58.206,30.393 58.539 L 31.586 58.777 31.561 62.205 L 31.535 65.633 30.368 65.866 C 28.757 66.189,28.718 67.600,30.320 67.600 C 32.223 67.600,33.114 69.309,31.786 70.411 C 30.680 71.330,31.127 78.561,32.300 78.728 C 33.164 78.851,33.510 80.196,33.225 82.323 C 33.186 82.610,33.390 82.814,33.677 82.775 C 34.855 82.617,35.200 82.849,35.200 83.800 C 35.200 84.600,35.400 84.800,36.200 84.800 C 37.000 84.800,37.200 85.000,37.200 85.800 C 37.200 86.600,37.400 86.800,38.200 86.800 C 39.000 86.800,39.200 87.000,39.200 87.800 C 39.200 88.600,39.400 88.800,40.200 88.800 C 41.000 88.800,41.200 89.000,41.200 89.800 C 41.200 90.600,41.400 90.800,42.200 90.800 C 43.000 90.800,43.200 91.000,43.200 91.800 C 43.200 92.733,43.333 92.800,45.200 92.800 C 47.093 92.800,47.200 92.856,47.200 93.853 L 47.200 94.905 50.234 94.710 C 53.254 94.517,54.514 95.170,53.720 96.516 C 53.617 96.690,59.758 96.809,67.367 96.781 L 81.200 96.730 81.200 95.765 C 81.200 94.853,81.331 94.800,83.576 94.800 C 84.883 94.800,86.076 94.601,86.226 94.357 C 86.418 94.048,86.615 94.078,86.882 94.457 C 87.146 94.832,87.190 94.660,87.025 93.900 C 86.804 92.890,86.883 92.800,87.992 92.800 C 88.998 92.800,89.200 92.641,89.200 91.847 C 89.200 91.230,89.482 90.819,90.000 90.684 C 91.465 90.301,91.021 88.800,89.443 88.800 C 87.554 88.800,87.600 89.175,87.600 73.790 C 87.600 60.359,87.619 60.032,88.425 59.467 C 90.052 58.328,89.370 55.410,87.465 55.359 C 86.074 55.322,85.946 55.404,86.103 56.228 C 86.354 57.540,85.929 57.588,74.000 57.598 C 68.170 57.603,62.455 57.720,61.300 57.859 L 59.200 58.111 59.200 62.299 L 59.200 66.488 60.700 66.224 C 67.225 65.080,73.286 65.495,75.100 67.211 L 76.400 68.441 76.394 75.120 C 76.386 83.775,77.333 82.957,67.119 83.135 C 62.433 83.217,58.420 83.412,58.200 83.567 C 57.355 84.163,56.585 83.749,56.217 82.500 C 56.007 81.785,55.692 81.200,55.517 81.200 C 55.343 81.200,55.200 80.750,55.200 80.200 C 55.200 79.005,53.967 78.845,52.146 79.803 C 50.946 80.435,49.600 79.586,49.600 78.198 C 49.600 77.916,49.319 77.578,48.975 77.446 C 48.631 77.314,48.462 77.023,48.600 76.799 C 49.184 75.855,49.307 71.142,48.747 71.219 C 47.292 71.420,47.200 71.220,47.200 67.855 C 47.200 64.546,47.190 64.513,46.245 64.694 C 44.885 64.954,43.600 64.148,43.600 63.035 C 43.600 61.769,44.544 61.072,45.975 61.282 C 46.626 61.377,47.067 61.308,46.955 61.128 C 46.844 60.947,46.137 60.800,45.384 60.800 C 44.258 60.800,43.971 60.623,43.764 59.801 C 43.351 58.152,43.808 57.600,45.587 57.600 L 47.200 57.600 47.200 54.200 C 47.200 50.840,47.212 50.800,48.200 50.800 C 48.974 50.800,49.200 50.594,49.200 49.889 C 49.200 49.388,49.560 48.670,50.000 48.293 C 50.518 47.849,50.800 47.113,50.800 46.204 C 50.800 44.911,50.895 44.800,52.000 44.800 C 53.013 44.800,53.200 44.644,53.200 43.800 C 53.200 43.067,53.413 42.800,54.000 42.800 C 54.587 42.800,54.800 42.533,54.800 41.800 C 54.800 40.721,56.122 40.347,56.567 41.300 C 56.753 41.700,56.847 41.700,57.033 41.300 C 57.162 41.025,57.497 40.800,57.778 40.800 C 58.078 40.800,58.272 40.355,58.245 39.727 L 58.200 38.653 66.655 38.758 C 73.117 38.838,75.310 38.738,75.956 38.334 C 77.063 37.643,78.153 38.290,78.327 39.740 C 78.436 40.656,78.639 40.800,79.827 40.800 C 81.025 40.800,81.200 40.927,81.200 41.800 C 81.200 42.733,81.333 42.800,83.200 42.800 C 85.067 42.800,85.200 42.867,85.200 43.800 C 85.200 44.737,85.330 44.800,87.252 44.800 L 89.305 44.800 89.086 43.500 C 88.966 42.785,88.752 41.908,88.611 41.552 C 88.252 40.645,89.390 39.628,90.493 39.870 C 91.220 40.030,91.281 39.985,90.800 39.641 C 90.356 39.324,90.337 39.211,90.725 39.206 C 92.016 39.191,91.074 36.607,89.730 36.477 C 87.696 36.280,86.814 33.200,88.791 33.200 C 89.296 33.200,89.279 30.887,88.766 29.800 C 88.443 29.115,88.410 29.158,88.539 30.100 C 88.666 31.032,88.545 31.200,87.745 31.200 C 86.719 31.200,86.371 29.840,87.300 29.465 C 87.575 29.354,87.147 29.249,86.349 29.232 C 85.513 29.213,84.687 29.454,84.400 29.800 C 83.427 30.973,81.600 29.843,81.600 28.069 C 81.600 27.282,81.391 27.200,79.400 27.200 C 77.306 27.200,77.200 27.150,77.200 26.176 C 77.200 25.613,77.037 25.254,76.838 25.377 C 76.638 25.500,76.569 25.961,76.684 26.400 C 76.853 27.045,76.696 27.200,75.874 27.200 C 75.122 27.200,74.822 26.964,74.728 26.300 C 74.601 25.410,74.520 25.399,67.526 25.291 L 60.452 25.182 60.326 26.451 M108.499 26.204 C 108.765 27.598,107.329 28.369,105.781 27.664 C 105.221 27.409,104.546 27.200,104.281 27.200 C 103.909 27.200,103.825 34.451,103.910 59.100 C 103.990 82.136,103.895 91.235,103.571 91.847 C 102.864 93.180,103.264 94.114,104.701 94.486 C 105.725 94.752,106.000 95.032,106.000 95.811 L 106.000 96.800 123.600 96.800 L 141.200 96.800 141.200 89.988 L 141.200 83.176 129.900 83.338 C 123.685 83.427,118.060 83.568,117.400 83.650 L 116.200 83.800 116.200 55.500 C 116.200 34.646,116.080 27.200,115.746 27.200 C 115.496 27.200,114.790 27.460,114.178 27.778 C 112.949 28.415,111.638 28.021,111.550 26.986 C 111.522 26.664,111.478 26.175,111.450 25.900 C 111.422 25.620,110.719 25.344,109.848 25.273 C 108.363 25.151,108.305 25.191,108.499 26.204 M170.180 26.197 C 170.360 27.836,169.492 28.220,166.846 27.674 C 162.889 26.857,161.200 27.014,161.200 28.200 C 161.200 29.133,161.067 29.200,159.200 29.200 C 157.333 29.200,157.200 29.267,157.200 30.200 C 157.200 31.133,157.067 31.200,155.200 31.200 C 153.143 31.200,152.155 32.713,153.800 33.345 C 155.105 33.846,154.243 36.400,152.769 36.400 C 152.400 36.400,151.874 36.670,151.600 37.000 C 151.326 37.330,150.747 37.600,150.314 37.600 C 149.862 37.600,149.436 37.941,149.316 38.400 C 149.181 38.918,148.770 39.200,148.153 39.200 C 147.276 39.200,147.200 39.359,147.200 41.200 C 147.200 43.067,147.133 43.200,146.200 43.200 C 145.223 43.200,145.200 43.268,145.200 46.186 C 145.200 48.762,145.090 49.231,144.400 49.600 C 143.960 49.835,143.600 50.224,143.600 50.463 C 143.600 50.745,143.814 50.721,144.209 50.392 C 144.718 49.970,144.777 49.994,144.566 50.543 C 144.428 50.905,144.064 51.200,143.757 51.200 C 143.294 51.200,143.200 53.181,143.200 63.000 L 143.200 74.800 144.200 74.800 C 145.171 74.800,145.200 74.882,145.200 77.573 C 145.200 80.302,145.218 80.349,146.300 80.473 C 147.367 80.596,147.396 80.664,147.260 82.734 L 147.121 84.868 148.260 84.734 C 149.400 84.600,149.400 84.600,149.263 86.700 L 149.126 88.800 151.363 88.800 C 153.085 88.800,153.600 88.938,153.600 89.400 C 153.600 89.730,153.938 90.000,154.351 90.000 C 155.127 90.000,156.075 90.856,155.967 91.458 C 155.814 92.307,156.047 92.800,156.600 92.800 C 156.981 92.800,157.200 93.184,157.200 93.853 L 157.200 94.905 160.234 94.710 C 163.248 94.517,164.514 95.169,163.724 96.509 C 163.624 96.679,169.315 96.805,176.371 96.789 L 189.200 96.760 189.200 95.780 C 189.200 94.871,189.344 94.800,191.200 94.800 C 193.067 94.800,193.200 94.733,193.200 93.800 C 193.200 92.867,193.333 92.800,195.200 92.800 C 197.067 92.800,197.200 92.733,197.200 91.800 C 197.200 91.000,197.400 90.800,198.200 90.800 C 199.000 90.800,199.200 90.600,199.200 89.800 C 199.200 89.000,199.400 88.800,200.200 88.800 C 201.000 88.800,201.200 88.600,201.200 87.800 C 201.200 87.000,201.400 86.800,202.200 86.800 C 203.000 86.800,203.200 86.600,203.200 85.800 C 203.200 84.993,203.398 84.800,204.225 84.800 C 204.962 84.800,205.230 84.603,205.179 84.100 C 204.926 81.611,205.190 80.800,206.253 80.800 L 207.305 80.800 207.113 77.800 L 206.920 74.800 208.065 74.800 L 209.211 74.800 209.105 61.500 L 209.000 48.200 208.066 48.331 C 206.618 48.534,205.546 47.357,206.090 46.162 C 206.331 45.633,206.680 45.200,206.864 45.200 C 207.049 45.200,207.200 43.850,207.200 42.200 C 207.200 39.267,207.178 39.200,206.200 39.200 C 205.407 39.200,205.200 38.998,205.200 38.227 C 205.200 37.462,204.964 37.226,204.100 37.127 C 203.495 37.057,203.036 36.802,203.080 36.559 C 203.129 36.294,202.759 36.195,202.151 36.311 C 200.899 36.551,197.843 33.467,198.151 32.276 C 198.254 31.874,198.084 31.454,197.769 31.333 C 197.456 31.213,197.200 30.684,197.200 30.157 C 197.200 29.065,195.434 28.797,194.027 29.676 C 192.991 30.323,191.866 29.411,192.112 28.124 C 192.302 27.131,188.781 26.659,188.200 27.600 C 188.064 27.820,187.173 28.000,186.219 28.000 C 184.434 28.000,184.000 27.602,184.000 25.967 C 184.000 25.240,183.634 25.200,177.035 25.200 L 170.070 25.200 170.180 26.197 M226.508 26.025 C 226.406 27.381,225.576 28.095,224.424 27.818 C 223.861 27.682,222.907 27.491,222.305 27.394 L 221.209 27.217 221.209 60.958 L 221.209 94.700 222.212 94.700 C 222.763 94.700,223.312 94.542,223.431 94.350 C 224.147 93.192,226.400 94.353,226.400 95.880 L 226.400 96.800 236.000 96.800 L 245.600 96.800 245.600 95.849 C 245.600 94.353,246.591 93.764,248.155 94.329 C 250.886 95.317,257.200 94.947,257.200 93.800 C 257.200 92.867,257.333 92.800,259.200 92.800 C 261.067 92.800,261.200 92.733,261.200 91.800 C 261.200 91.000,261.400 90.800,262.200 90.800 C 263.000 90.800,263.200 90.600,263.200 89.800 C 263.200 89.000,263.400 88.800,264.200 88.800 C 265.000 88.800,265.200 88.600,265.200 87.800 C 265.200 87.000,265.400 86.800,266.200 86.800 C 267.133 86.800,267.200 86.667,267.200 84.800 C 267.200 82.933,267.267 82.800,268.200 82.800 L 269.200 82.800 269.200 75.975 L 269.200 69.150 268.300 69.275 C 267.477 69.389,267.390 69.219,267.279 67.300 C 267.169 65.385,267.074 65.200,266.201 65.200 C 265.343 65.200,265.231 65.003,265.122 63.300 L 265.000 61.400 263.100 61.278 C 261.385 61.168,261.200 61.061,261.200 60.178 C 261.200 59.083,260.030 58.848,257.018 59.338 C 256.665 59.395,256.617 59.044,256.750 57.370 C 256.784 56.941,257.152 56.763,257.900 56.812 C 261.030 57.019,261.311 56.901,261.033 55.500 C 260.481 52.717,260.512 52.608,261.900 52.475 C 262.876 52.381,263.200 52.156,263.200 51.575 C 263.200 51.013,263.478 50.800,264.210 50.800 L 265.219 50.800 265.110 44.100 C 265.002 37.494,264.987 37.398,264.100 37.272 C 263.307 37.160,262.979 36.532,263.162 35.473 C 263.192 35.294,262.899 35.179,262.509 35.219 C 260.918 35.383,260.823 35.251,261.044 33.200 C 261.253 31.262,261.228 31.200,260.230 31.200 C 259.398 31.200,259.200 31.008,259.200 30.200 C 259.200 29.267,259.067 29.200,257.200 29.200 C 255.318 29.200,255.200 29.139,255.200 28.171 L 255.200 27.141 251.700 27.372 C 245.620 27.773,245.210 27.770,244.773 27.333 C 244.537 27.097,244.295 26.566,244.234 26.152 C 244.052 24.907,226.602 24.781,226.508 26.025 M283.200 26.200 C 283.200 27.000,283.000 27.200,282.200 27.200 L 281.200 27.200 281.200 61.000 L 281.200 94.800 282.200 94.800 C 283.000 94.800,283.200 95.000,283.200 95.800 L 283.200 96.800 301.200 96.800 L 319.200 96.800 319.200 95.800 C 319.200 95.000,319.400 94.800,320.200 94.800 C 321.196 94.800,321.200 94.787,321.200 91.000 L 321.200 87.200 306.200 87.200 L 291.200 87.200 291.200 76.000 L 291.200 64.800 303.200 64.800 L 315.200 64.800 315.200 63.800 C 315.200 62.998,315.400 62.800,316.207 62.800 L 317.215 62.800 317.153 58.900 C 317.120 56.755,317.009 55.233,316.907 55.517 C 316.773 55.893,316.581 55.916,316.203 55.603 C 315.918 55.366,315.530 55.200,315.342 55.233 C 315.154 55.267,309.657 55.273,303.126 55.247 L 291.252 55.200 291.118 45.500 C 291.044 40.165,290.898 35.571,290.792 35.291 C 290.639 34.884,293.364 34.785,304.300 34.800 L 318.000 34.820 318.000 33.890 C 318.000 32.708,318.705 32.000,319.880 32.000 C 320.386 32.000,320.822 31.820,320.850 31.600 C 321.054 29.968,320.972 29.828,319.800 29.814 C 318.508 29.799,317.874 28.366,318.766 27.474 C 319.005 27.235,319.200 26.626,319.200 26.120 L 319.200 25.200 301.200 25.200 L 283.200 25.200 283.200 26.200 M338.667 25.467 C 338.520 25.613,338.400 26.150,338.400 26.659 C 338.400 27.765,336.904 28.298,335.664 27.634 C 335.218 27.395,334.481 27.200,334.026 27.200 L 333.200 27.200 333.200 61.000 C 333.200 98.827,332.919 95.414,335.949 94.358 C 337.474 93.826,338.400 94.390,338.400 95.849 L 338.400 96.800 355.800 96.800 L 373.200 96.800 373.200 92.000 L 373.200 87.200 359.200 87.200 L 345.200 87.200 345.200 76.000 L 345.200 64.800 355.400 64.800 L 365.600 64.800 365.600 63.862 C 365.600 62.565,366.925 61.454,368.186 61.695 L 369.200 61.889 369.200 58.545 L 369.200 55.200 357.200 55.200 L 345.200 55.200 345.200 45.000 L 345.200 34.800 359.200 34.800 L 373.200 34.800 373.200 31.269 L 373.200 27.739 371.996 27.915 C 370.541 28.129,369.600 27.436,369.600 26.151 L 369.600 25.200 354.267 25.200 C 345.833 25.200,338.813 25.320,338.667 25.467 M246.567 34.643 C 246.915 34.776,247.200 35.316,247.200 35.843 C 247.200 36.597,247.412 36.800,248.200 36.800 C 249.000 36.800,249.200 37.000,249.200 37.800 C 249.200 38.600,249.400 38.800,250.200 38.800 C 251.000 38.800,251.200 39.000,251.200 39.800 C 251.200 40.600,251.400 40.800,252.200 40.800 L 253.200 40.800 253.200 45.000 L 253.200 49.200 252.200 49.200 C 251.413 49.200,251.200 49.403,251.200 50.153 C 251.200 50.782,250.917 51.181,250.370 51.324 C 249.914 51.443,249.443 51.914,249.324 52.370 C 249.181 52.917,248.782 53.200,248.153 53.200 C 247.403 53.200,247.200 53.413,247.200 54.200 L 247.200 55.200 240.200 55.200 L 233.200 55.200 233.200 45.011 L 233.200 34.823 238.700 34.699 C 241.725 34.631,244.590 34.536,245.067 34.488 C 245.544 34.439,246.219 34.509,246.567 34.643 M183.200 39.800 C 183.200 40.736,183.330 40.800,185.247 40.800 C 187.203 40.800,187.285 40.843,187.106 41.780 C 187.003 42.319,187.027 42.748,187.159 42.733 C 188.458 42.584,189.200 42.890,189.200 43.575 C 189.200 44.156,189.524 44.381,190.500 44.475 C 191.428 44.564,191.753 44.772,191.636 45.200 C 191.545 45.530,191.391 46.994,191.293 48.453 L 191.115 51.105 192.158 50.906 L 193.200 50.707 193.200 60.180 C 193.200 65.995,193.361 69.954,193.618 70.433 C 194.072 71.283,192.777 72.114,191.660 71.689 C 191.135 71.489,191.137 72.672,191.671 76.800 C 191.783 77.668,191.629 77.817,190.500 77.925 C 189.695 78.003,189.200 78.269,189.200 78.625 C 189.200 78.972,188.803 79.200,188.200 79.200 C 187.400 79.200,187.200 79.400,187.200 80.200 C 187.200 80.917,186.984 81.200,186.437 81.200 C 185.871 81.200,185.729 81.406,185.885 82.002 C 186.187 83.158,185.310 84.087,184.384 83.592 C 182.921 82.808,178.448 83.096,178.673 83.959 C 179.079 85.510,178.128 86.400,176.066 86.400 C 173.881 86.400,173.200 85.906,173.200 84.320 L 173.200 83.200 169.975 83.200 C 166.860 83.200,166.754 83.169,166.875 82.300 C 166.969 81.624,166.776 81.368,166.100 81.272 C 165.449 81.180,165.200 80.876,165.200 80.172 C 165.200 79.402,164.992 79.200,164.200 79.200 C 163.267 79.200,163.200 79.067,163.200 77.200 C 163.200 75.943,163.027 75.200,162.733 75.200 C 162.477 75.200,162.385 75.318,162.530 75.463 C 162.675 75.608,162.570 76.003,162.297 76.340 C 161.891 76.841,161.901 76.893,162.352 76.621 C 162.715 76.403,162.848 76.455,162.742 76.774 C 162.653 77.041,162.450 77.247,162.290 77.230 C 162.131 77.214,161.730 77.200,161.400 77.200 C 161.023 77.200,160.800 76.820,160.800 76.176 C 160.800 75.613,160.935 75.237,161.100 75.339 C 161.265 75.442,161.339 74.463,161.264 73.163 C 161.184 71.762,160.940 70.775,160.664 70.739 C 160.409 70.706,159.951 70.660,159.647 70.637 C 158.508 70.552,157.965 69.088,158.611 67.844 C 159.466 66.196,159.463 56.800,158.608 56.800 C 156.527 56.800,157.783 53.641,159.924 53.490 C 161.198 53.400,161.198 53.400,161.199 51.100 C 161.200 48.914,161.249 48.800,162.200 48.800 C 163.133 48.800,163.200 48.667,163.200 46.800 C 163.200 44.933,163.267 44.800,164.200 44.800 C 165.000 44.800,165.200 44.600,165.200 43.800 C 165.200 43.000,165.400 42.800,166.200 42.800 C 167.000 42.800,167.200 42.600,167.200 41.800 C 167.200 40.757,167.593 40.621,170.125 40.790 C 170.862 40.840,171.225 40.682,171.178 40.333 C 170.973 38.828,171.083 38.800,177.200 38.800 L 183.200 38.800 183.200 39.800 M251.920 64.480 C 252.184 64.744,252.400 65.297,252.400 65.709 C 252.400 66.120,252.662 66.719,252.983 67.040 C 253.304 67.361,253.476 67.858,253.366 68.145 C 253.256 68.432,253.418 68.667,253.727 68.667 C 254.036 68.667,254.269 68.401,254.244 68.076 C 254.220 67.752,254.470 67.408,254.800 67.313 C 255.331 67.159,255.331 67.187,254.803 67.553 C 254.328 67.882,254.308 68.068,254.703 68.463 C 254.977 68.737,255.200 69.374,255.200 69.880 C 255.200 70.595,255.423 70.800,256.200 70.800 L 257.200 70.800 257.200 76.000 L 257.200 81.200 256.200 81.200 C 255.400 81.200,255.200 81.400,255.200 82.200 C 255.200 83.000,255.000 83.200,254.200 83.200 C 253.400 83.200,253.200 83.400,253.200 84.200 C 253.200 85.174,253.123 85.200,250.300 85.212 C 248.135 85.221,247.577 85.328,248.100 85.632 C 250.591 87.083,248.968 87.426,240.300 87.282 L 233.200 87.164 233.200 75.982 L 233.200 64.800 241.376 64.800 C 246.396 64.800,249.648 64.646,249.800 64.400 C 250.139 63.852,251.337 63.897,251.920 64.480 M208.301 75.991 C 207.582 76.830,207.796 77.044,208.749 76.440 C 209.051 76.249,209.229 75.888,209.146 75.637 C 209.054 75.361,208.720 75.501,208.301 75.991 M255.592 79.810 C 255.314 80.145,255.197 80.531,255.333 80.667 C 255.624 80.957,256.800 80.063,256.800 79.551 C 256.800 79.000,256.148 79.140,255.592 79.810 M80.351 95.430 C 80.627 95.259,80.702 95.389,80.553 95.779 C 80.343 96.325,79.600 96.678,79.600 96.233 C 79.600 96.141,79.493 95.736,79.362 95.333 C 79.181 94.775,79.218 94.732,79.518 95.151 C 79.734 95.454,80.109 95.580,80.351 95.430 " stroke="none" fill="#ffffff" fill-rule="evenodd"></path></g></svg>